<svg width="27" height="27" viewBox="0 0 27 27" fill="none" xmlns="http://www.w3.org/2000/svg">
<path d="M13.6965 5.82628C15.5592 5.79762 17.3607 6.49158 18.7228 7.76253L22.3915 4.17503C20.0377 1.96946 16.9219 0.760045 13.6965 0.800033C11.2866 0.799476 8.92402 1.46933 6.87301 2.73468C4.822 4.00003 3.16343 5.81099 2.08276 7.96503L6.28651 11.2288C6.80053 9.66585 7.79218 8.3037 9.12164 7.33442C10.4511 6.36514 12.0513 5.83763 13.6965 5.82628Z" fill="#E43E2B"/>
<path d="M26.176 14.0891C26.1914 13.1955 26.099 12.3032 25.901 11.4316H13.696V16.2566H20.861C20.7251 17.1026 20.4195 17.9123 19.9626 18.6371C19.5057 19.3618 18.9069 19.9867 18.2023 20.4741L22.3048 23.6516C23.5833 22.4172 24.5888 20.9284 25.2563 19.2813C25.9237 17.6342 26.2383 15.8654 26.1798 14.0891H26.176Z" fill="#3B7DED"/>
<path d="M6.30147 16.3707C6.01724 15.5431 5.87071 14.6745 5.86772 13.7994C5.87291 12.9258 6.01418 12.0583 6.28647 11.2282L2.08272 7.96442C1.17097 9.77459 0.696045 11.7732 0.696045 13.8C0.696045 15.8269 1.17097 17.8255 2.08272 19.6357L6.30147 16.3707Z" fill="#F0B501"/>
<path d="M13.6964 26.7998C16.863 26.8894 19.9436 25.7626 22.3052 23.6511L18.2027 20.4736C16.8725 21.3654 15.2972 21.8198 13.6964 21.7736C12.0526 21.7638 10.4535 21.2367 9.12617 20.267C7.7988 19.2972 6.81047 17.9341 6.30141 16.3711L2.09766 19.6361C3.17541 21.7892 4.83127 23.5997 6.8798 24.865C8.92833 26.1302 11.2886 26.8002 13.6964 26.7998Z" fill="#2BA24C"/>
</svg>
