<svg width="24" height="19" viewBox="0 0 24 19" fill="none" xmlns="http://www.w3.org/2000/svg">
<path d="M2.7876 15.7495H21.2124C22.7803 15.7495 23.5967 14.9424 23.5967 13.3652V2.7334C23.5967 1.16553 22.7803 0.358398 21.2124 0.358398H2.7876C1.21973 0.358398 0.40332 1.16553 0.40332 2.7334V13.3652C0.40332 14.9424 1.21973 15.7495 2.7876 15.7495ZM2.81543 14.2559C2.20312 14.2559 1.89697 13.9497 1.89697 13.3467V2.76123C1.89697 2.14893 2.20312 1.85205 2.81543 1.85205H21.1846C21.7969 1.85205 22.103 2.14893 22.103 2.76123V13.3467C22.103 13.9497 21.7969 14.2559 21.1846 14.2559H2.81543ZM7.3335 18.8945H16.6665C17.0747 18.8945 17.418 18.5605 17.418 18.1431C17.418 17.7256 17.0747 17.3916 16.6665 17.3916H7.3335C6.92529 17.3916 6.58203 17.7256 6.58203 18.1431C6.58203 18.5605 6.92529 18.8945 7.3335 18.8945Z" fill="#222222"/>
</svg>
